<svg width="240" height="64" viewBox="0 0 240 64" fill="none" xmlns="http://www.w3.org/2000/svg" role="img" aria-label="Sipher">
  <rect width="240" height="64" rx="18" fill="#050505"/>
  <path d="M35.5 13.5L52 22.5V41.5L35.5 50.5L19 41.5V22.5L35.5 13.5Z" fill="#0B0B0F" stroke="#A78BFA" stroke-width="3"/>
  <path d="M35.5 23.5L43.5 28V37L35.5 41.5L27.5 37V28L35.5 23.5Z" fill="#A78BFA"/>
  <path d="M80.386 44.48C74.602 44.48 70.282 42.704 67.426 39.152L70.714 35.552C73.162 38.48 76.402 39.944 80.434 39.944C82.426 39.944 83.986 39.56 85.114 38.792C86.266 38.024 86.842 36.956 86.842 35.588C86.842 34.364 86.314 33.416 85.258 32.744C84.226 32.048 82.33 31.388 79.57 30.764C75.97 29.948 73.342 28.832 71.686 27.416C70.03 25.976 69.202 23.996 69.202 21.476C69.202 18.812 70.258 16.652 72.37 14.996C74.506 13.34 77.326 12.512 80.83 12.512C85.558 12.512 89.326 13.952 92.134 16.832L89.026 20.504C86.746 18.2 84.01 17.048 80.818 17.048C78.97 17.048 77.518 17.42 76.462 18.164C75.43 18.884 74.914 19.88 74.914 21.152C74.914 22.208 75.37 23.048 76.282 23.672C77.218 24.272 78.97 24.872 81.538 25.472C85.474 26.384 88.294 27.62 89.998 29.18C91.726 30.716 92.59 32.78 92.59 35.372C92.59 38.18 91.474 40.4 89.242 42.032C87.01 43.664 84.058 44.48 80.386 44.48Z" fill="white"/>
  <path d="M101.536 44H96.076V21.008H101.536V44ZM98.824 17.336C97.84 17.336 97.012 17.012 96.34 16.364C95.692 15.692 95.368 14.876 95.368 13.916C95.368 12.956 95.692 12.152 96.34 11.504C97.012 10.832 97.84 10.496 98.824 10.496C99.808 10.496 100.624 10.832 101.272 11.504C101.944 12.152 102.28 12.956 102.28 13.916C102.28 14.876 101.944 15.692 101.272 16.364C100.624 17.012 99.808 17.336 98.824 17.336Z" fill="white"/>
  <path d="M112.308 53.12H106.848V21.008H111.984L112.236 24.044C113.964 21.692 116.436 20.516 119.652 20.516C122.844 20.516 125.424 21.62 127.392 23.828C129.384 26.012 130.38 28.856 130.38 32.36C130.38 35.888 129.372 38.792 127.356 41.072C125.364 43.328 122.76 44.456 119.544 44.456C116.568 44.456 114.156 43.436 112.308 41.396V53.12ZM118.44 39.872C120.336 39.872 121.872 39.176 123.048 37.784C124.248 36.368 124.848 34.568 124.848 32.384C124.848 30.2 124.26 28.448 123.084 27.128C121.908 25.784 120.36 25.112 118.44 25.112C116.592 25.112 115.08 25.796 113.904 27.164C112.728 28.508 112.14 30.284 112.14 32.492C112.14 34.7 112.728 36.488 113.904 37.856C115.08 39.2 116.592 39.872 118.44 39.872Z" fill="white"/>
  <path d="M139.576 44H134.116V11.36H139.576V24.008C141.184 21.68 143.536 20.516 146.632 20.516C149.32 20.516 151.432 21.356 152.968 23.036C154.504 24.692 155.272 27.056 155.272 30.128V44H149.812V30.884C149.812 27.02 148.216 25.088 145.024 25.088C143.392 25.088 142.072 25.652 141.064 26.78C140.072 27.884 139.576 29.384 139.576 31.28V44Z" fill="white"/>
  <path d="M171.272 44.456C167.672 44.456 164.768 43.364 162.56 41.18C160.376 38.972 159.284 36.068 159.284 32.468C159.284 28.94 160.352 26.06 162.488 23.828C164.648 21.62 167.42 20.516 170.804 20.516C174.044 20.516 176.648 21.548 178.616 23.612C180.584 25.652 181.568 28.352 181.568 31.712C181.568 32.456 181.52 33.14 181.424 33.764H164.72C164.96 35.66 165.68 37.16 166.88 38.264C168.104 39.344 169.64 39.884 171.488 39.884C174.056 39.884 176.024 38.852 177.392 36.788L180.932 39.704C178.828 42.872 175.608 44.456 171.272 44.456ZM164.864 30.02H176.18C175.988 28.412 175.424 27.128 174.488 26.168C173.552 25.184 172.316 24.692 170.78 24.692C169.244 24.692 167.948 25.184 166.892 26.168C165.86 27.128 165.184 28.412 164.864 30.02Z" fill="white"/>
  <path d="M190.874 44H185.414V21.008H190.55L190.838 24.692C192.254 22.028 194.342 20.696 197.102 20.696C197.846 20.696 198.422 20.756 198.83 20.876V25.976C198.182 25.808 197.462 25.724 196.67 25.724C194.822 25.724 193.394 26.3 192.386 27.452C191.378 28.604 190.874 30.248 190.874 32.384V44Z" fill="white"/>
</svg>
